<svg xmlns="http://www.w3.org/2000/svg" width="1441.5" height="600.628" viewBox="0 0 1441.5 600.628">
    <defs>
        <style>
            .cls-1{fill:none;stroke:#fff;stroke-miterlimit:10;stroke-width:1.5px}
        </style>
    </defs>
    <g id="Gruppe_348" data-name="Gruppe 348" transform="translate(-1848.287 -1779.199)">
        <g id="Gruppe_600" data-name="Gruppe 600" transform="translate(1849.037 1779.514)">
            <g id="Gruppe_599" data-name="Gruppe 599">
                <g id="Gruppe_347" data-name="Gruppe 347">
                    <g id="Gruppe_346" data-name="Gruppe 346">
                        <g id="Gruppe_345" data-name="Gruppe 345">
                            <g id="Gruppe_344" data-name="Gruppe 344">
                                <path id="Pfad_180" d="M3219.721 1779.864a719.123 719.123 0 0 1 .777 599.65" class="cls-1" data-name="Pfad 180"
                                      transform="translate(-1845.595 -1779.514)"/>
                                <path id="Pfad_180-2" d="M1849.037 2080.77a715.622 715.622 0 0 1 66.036-301.256" class="cls-1" data-name="Pfad 180"
                                      transform="translate(-1849.037 -1779.514)"/>
                                <path id="Ellipse_34" d="M1854.013 2379.982c28.529-169.82 176.236-299.209 354.164-299.209s325.635 129.389 354.164 299.209"
                                      class="cls-1" data-name="Ellipse 34" transform="translate(-1849.037 -1779.987)"/>
                                <path id="Pfad_181" d="M3155.388 1779.875c-130.669 182.166-344.6 300.9-586.351 300.9s-455.677-118.727-586.347-300.89"
                                      class="cls-1" data-name="Pfad 181" transform="translate(-1849.037 -1779.514)"/>
                                <path id="Linie_54" d="M2567.316 2379.509v-599.634" class="cls-1" data-name="Linie 54"
                                      transform="translate(-1847.316 -1779.514)"/>
                                <path id="Linie_55" d="M3289.037 2080.77h-1440" class="cls-1" data-name="Linie 55" transform="translate(-1849.037 -1779.751)"/>
                            </g>
                        </g>
                    </g>
                </g>
            </g>
        </g>
    </g>
</svg>
