<svg xmlns="http://www.w3.org/2000/svg" width="1441.5" height="601.124" viewBox="0 0 1441.5 601.124">
    <defs>
        <style>
            .cls-1{fill:none;stroke:#fff;stroke-miterlimit:10;stroke-width:1.5px}
        </style>
    </defs>
    <g id="Gruppe_598" data-name="Gruppe 598" transform="translate(-1847.598 -3296.257)">
        <path id="Pfad_287" d="M2793.162 3296.631a480.51 480.51 0 0 1 15.186 120.194v-120.194" class="cls-1" data-name="Pfad 287" transform="translate(-.001)"/>
        <path id="Pfad_288" d="M2808.35 3296.631v120.194h240a239.919 239.919 0 0 1-208.028-120.194" class="cls-1" data-name="Pfad 288"
              transform="translate(-.002)"/>
        <path id="Pfad_289" d="M3288.35 3416.825h-480v479.806c265.095 0 480-214.816 480-479.806z" class="cls-1" data-name="Pfad 289"
              transform="translate(-.002 -.004)"/>
        <path id="Pfad_290" d="M2568.35 3832.435a477.927 477.927 0 0 0 240 64.2v-479.81c0 177.594-96.531 332.648-240 415.61z" class="cls-1" data-name="Pfad 290"
              transform="translate(-.001 -.004)"/>
        <path id="Pfad_291" d="M2840.321 3296.631a240.121 240.121 0 0 0 416.056 0" class="cls-1" data-name="Pfad 291" transform="translate(-.002)"/>
        <path id="Pfad_292" d="M2568.35 3832.435c143.471-82.962 240-238.016 240-415.61h-480c0 177.594 96.528 332.648 240 415.61z" class="cls-1"
              data-name="Pfad 292" transform="translate(-.001 -.004)"/>
        <path id="Pfad_293" d="M2343.535 3296.631a480.421 480.421 0 0 0-15.187 120.194h480a480.51 480.51 0 0 0-15.186-120.194" class="cls-1"
              data-name="Pfad 293" transform="translate(-.001)"/>
        <path id="Pfad_294" d="M1863.535 3296.631a480.455 480.455 0 0 0-15.187 120.194h480a480.421 480.421 0 0 1 15.187-120.194" class="cls-1"
              data-name="Pfad 294"/>
        <path id="Pfad_295"
              d="M2328.35 3416.825h-480c0 264.99 214.9 479.806 480 479.806a477.931 477.931 0 0 0 240-64.2c-143.472-82.958-240-238.012-240-415.606z"
              class="cls-1" data-name="Pfad 295" transform="translate(0 -.004)"/>
    </g>
</svg>
