<svg xmlns="http://www.w3.org/2000/svg" width="1441.5" height="600.939" viewBox="0 0 1441.5 600.939">
    <defs>
        <style>
            .cls-1{fill:none;stroke:#fff;stroke-miterlimit:10;stroke-width:1.5px}
        </style>
    </defs>
    <g id="Gruppe_277" data-name="Gruppe 277" transform="translate(-3722.574 -3296.057)">
        <g id="Gruppe_276" data-name="Gruppe 276" transform="translate(3723.324 3296.62)">
            <path id="Pfad_133" d="M3886.334 3296.626c-99.946 87.965-163.01 216.845-163.01 360.455" class="cls-1" data-name="Pfad 133"
                  transform="translate(-3723.324 -3296.62)"/>
            <path id="Pfad_133-2" d="M4619.586 3895.787a477.14 477.14 0 0 0 63.738-238.989c0-143.5-63.068-272.282-163.018-360.178" class="cls-1"
                  data-name="Pfad 133" transform="translate(-3723.327 -3296.62)"/>
            <path id="Ellipse_31-2" d="M3723.324 3897.084c0-132.548 107.451-240 240-240s240 107.452 240 240" class="cls-1" data-name="Ellipse 31"
                  transform="translate(-3723.324 -3297.09)"/>
            <path id="Ellipse_32" d="M4267.541 3896.62a477.129 477.129 0 0 1-64.22-239.821c0-143.5 63.067-272.278 163.016-360.173" class="cls-1"
                  data-name="Ellipse 32" transform="translate(-3723.326 -3296.62)"/>
            <path id="Ellipse_32-4" d="M5000.313 3296.626c99.949 87.9 163.016 216.675 163.016 360.173a477.139 477.139 0 0 1-64.218 239.818" class="cls-1"
                  data-name="Ellipse 32" transform="translate(-3723.329 -3296.62)"/>
            <path id="Linie_34" d="M3723.324 3657.081h960" class="cls-1" data-name="Linie 34" transform="translate(-3723.324 -3296.902)"/>
            <path id="Linie_35-2" d="M4203.324 3296.631v599.983" class="cls-1" data-name="Linie 35" transform="translate(-3723.326 -3296.62)"/>
            <path id="Ellipse_31-3" d="M3723.324 3897.084c0-132.548 107.451-240 240-240" class="cls-1" data-name="Ellipse 31"
                  transform="translate(-3723.324 -3297.09)"/>
        </g>
    </g>
</svg>
